<?xml version="1.0" standalone="no"?>
<svg xmlns="http://www.w3.org/2000/svg" viewBox="0 0 106.2 36" width="106.2" height="36"><g fill="#00936f" color="#00936f" transform="translate(0 4.777777777777779) scale(0.5185186)"><svg width="54.0" height="51.0" x="0.0" y="0.0" viewBox="0 0 54 51"><path fill="currentColor" fill-rule="evenodd" d="M49.971 41.85c-2.52 4.41-6.66 7.11-10.8 7.11-1.98 0-4.86-.63-7.83-3.51-.81-.81-3.87-4.41-7.11-9.27l-1.17-1.71s-1.35-2.25-1.62-2.79v-.09c-.09-.18-.18-.36-.36-.54 0-.09-.09-.09-.09-.18-.09-.09-.09-.18-.18-.36-.09-.09-.09-.27-.18-.36 1.35-.18 2.97-.45 3.33-.45.99-.18 1.98-.54 2.79-1.35 0 .09.09.09.09.18.09.18.27.36.36.63.72 1.17 1.44 2.34 2.25 3.6l1.98 2.79c2.16 2.97 4.05 5.13 4.5 5.58 1.08 1.17 2.25 1.71 3.33 1.71 1.89 0 4.05-1.62 5.4-4.05 1.26-2.16 1.62-4.68.99-6.3-.54-1.17-1.62-1.98-3.33-2.52-.45-.09-2.97-.63-6.57-1.08.9-1.89 2.34-4.95 2.88-5.85 2.7.36 4.68.81 5.31.99 4.59 1.17 6.66 3.96 7.56 6.12 1.26 3.33.81 7.74-1.53 11.7zm-30.06-9.27c.18.27.63 1.17 1.08 1.8l-.09.18c-2.25 3.06-4.05 5.13-4.23 5.31-.54.54-1.35 1.17-2.16 1.17-1.08 0-2.79-1.08-3.96-3.15-1.17-1.98-1.26-3.87-.9-4.77.18-.45.63-1.08 2.25-1.53.63-.18 3.33-.72 6.75-1.08h.18l.09.18c.27.45.45.9.72 1.26.09.18.18.36.27.63zm2.34 12.87c-2.88 2.88-5.85 3.51-7.74 3.51-4.14 0-8.28-2.7-10.8-7.11-2.34-3.96-2.79-8.37-1.35-11.79.9-2.07 2.88-4.86 7.47-6.12.63-.18 2.25-.54 4.32-.81H15.591s3.78-.54 9.18-.81h3.51c-.27.63-1.44 3.42-2.79 5.04-.54.72-1.17.99-1.71 1.08-1.89.27-5.85.72-5.94.72-.72.09-1.35.18-1.89.27-2.34.36-3.96.72-4.59.81-1.8.45-2.88 1.26-3.33 2.52-.72 1.62-.27 4.14.99 6.3 1.35 2.43 3.6 4.05 5.4 4.05 1.08 0 2.25-.54 3.33-1.71.27-.27 1.89-2.16 4.14-5.13.9 1.26 2.7 3.87 3.78 5.31-1.71 1.98-2.97 3.51-3.42 3.87zm6.84-25.02h-4.5l-.09-.18c-1.53-3.51-2.43-6.03-2.43-6.21-.45-1.62-.09-2.25.18-2.7.63-.81 2.34-1.62 4.59-1.62h.27c2.16.09 3.78.9 4.32 1.62.45.63.54 1.53.18 2.61-.72 2.34-1.71 4.68-2.52 6.48zm5.85 10.08c3.87.45 6.57.99 6.84 1.08 1.62.45 2.07 1.08 2.25 1.53.36.9.27 2.79-.9 4.77-1.17 2.07-2.88 3.15-3.96 3.15-.81 0-1.62-.63-2.16-1.17-.27-.27-2.07-2.34-4.32-5.4l-.09-.09.27-.36.54-.81c.36-.54.63-1.17.99-1.8l.45-.81.09-.09zm-20.52-14.4c-1.26-4.59.18-7.74 1.53-9.54 2.25-2.97 6.39-4.77 10.89-4.77h.27c4.41.09 8.37 1.8 10.62 4.77 1.35 1.8 2.79 4.95 1.53 9.54-.27.9-1.98 5.58-4.5 10.71l-.9 1.89-.99 1.89c-.36.63-.63 1.17-.99 1.8-.09.18-.27.45-.36.63-1.35-1.98-3.42-5.31-3.78-5.94.54-.9.99-1.89 1.53-2.97 0 0 2.52-4.68 4.05-9.63.54-1.71.36-3.06-.45-4.14-.99-1.35-3.24-2.25-5.67-2.34h-.27c-2.52 0-4.86.9-5.94 2.34-.81 1.08-.99 2.43-.45 4.14.09.27.9 2.7 2.34 6.03-1.89.09-3.96.27-6.48.63 0-.09-.09-.18-.09-.27v-.09c0-.09-.09-.18-.09-.27-1.08-2.25-1.62-3.87-1.8-4.41zm38.52 13.32c-.99-2.43-3.33-5.67-8.64-7.11-.72-.18-2.61-.54-5.13-.99.99-2.43 1.62-4.23 1.8-4.86 1.44-5.31-.18-8.91-1.8-11.07-2.52-3.33-6.93-5.31-11.88-5.4h-.36c-5.04 0-9.63 2.07-12.24 5.4-1.62 2.16-3.24 5.76-1.8 11.07.18.63.81 2.43 1.8 4.86-2.34.36-4.23.72-5.13.99-5.31 1.35-7.65 4.59-8.64 7.11-1.62 3.96-1.08 8.91 1.44 13.32 2.88 4.95 7.56 8.01 12.33 8.01 2.25 0 5.67-.72 9-4.05.45-.45 1.8-1.98 3.33-3.96 1.62 2.07 2.88 3.51 3.33 3.96 3.33 3.33 6.75 4.05 9 4.05 4.77 0 9.45-3.06 12.33-8.01 2.34-4.41 2.88-9.45 1.26-13.32z"></path></svg></g><path fill="#305252" fill-rule="nonzero" d="M7.87 12.34Q7.87 13.61 7.61 14.45Q7.34 15.29 6.44 15.80Q5.54 16.32 3.74 16.32L3.74 16.32Q2.04 16.32 1.24 15.77Q0.43 15.22 0.22 14.34Q0 13.46 0 11.98L0 11.98L2.16 11.98Q2.16 13.80 2.51 14.54Q2.86 15.29 3.82 15.29L3.82 15.29Q4.75 15.29 5.09 14.63Q5.42 13.97 5.42 12.34L5.42 12.34L5.42 1.32L7.87 1.32L7.87 12.34ZM15.84 16.32Q12.94 16.32 11.80 14.65Q10.66 12.98 10.66 10.27L10.66 10.27Q10.66 7.54 11.80 5.88Q12.94 4.22 15.84 4.22L15.84 4.22Q18.72 4.22 19.87 5.89Q21.02 7.56 21.02 10.27L21.02 10.27Q21.02 16.32 15.84 16.32L15.84 16.32ZM15.84 15.12Q17.42 15.12 18.01 13.85Q18.60 12.58 18.60 10.27L18.60 10.27Q18.60 7.94 18.02 6.68Q17.45 5.42 15.84 5.42L15.84 5.42Q14.23 5.42 13.66 6.67Q13.08 7.92 13.08 10.27L13.08 10.27Q13.08 12.60 13.66 13.86Q14.23 15.12 15.84 15.12L15.84 15.12ZM31.56 4.51L32.95 4.51L27.07 20.90L25.10 20.62L27.34 16.49L22.34 4.51L24.77 4.51L28.44 13.61L31.56 4.51ZM44.11 10.42L36.67 10.42L36.67 10.46Q36.67 13.01 37.28 14.06Q37.90 15.12 39.38 15.12L39.38 15.12Q41.83 15.12 41.95 12.60L41.95 12.60L43.94 12.70Q43.78 14.38 42.72 15.35Q41.66 16.32 39.31 16.32L39.31 16.32Q36.60 16.32 35.42 14.82Q34.25 13.32 34.25 10.27L34.25 10.27Q34.25 7.54 35.36 5.88Q36.48 4.22 39.29 4.22L39.29 4.22Q42 4.22 43.06 5.87Q44.11 7.51 44.11 10.18L44.11 10.18L44.11 10.42ZM39.24 5.42Q37.97 5.42 37.39 6.36Q36.82 7.30 36.70 9.22L36.70 9.22L41.76 9.22Q41.69 7.34 41.12 6.38Q40.56 5.42 39.24 5.42L39.24 5.42ZM49.37 6.70Q49.92 5.66 50.92 5.04Q51.91 4.42 53.30 4.42L53.30 4.42L53.30 6.19Q49.61 6.19 49.61 9.07L49.61 9.07L49.58 9.07L49.58 16.03L47.16 16.03L47.16 4.51L48.22 4.51L49.37 6.70ZM56.52 3Q55.90 3 55.46 2.56Q55.03 2.11 55.03 1.51L55.03 1.51Q55.03 0.89 55.46 0.44Q55.90 0 56.52 0L56.52 0Q57.14 0 57.59 0.44Q58.03 0.89 58.03 1.51L58.03 1.51Q58.03 2.11 57.58 2.56Q57.12 3 56.52 3L56.52 3ZM57.67 4.51L57.67 16.03L55.30 16.03L55.30 4.51L57.67 4.51ZM63.96 16.32Q62.50 16.32 61.64 15.52Q60.79 14.71 60.79 13.32L60.79 13.32Q60.79 11.83 61.86 10.98Q62.93 10.13 65.11 9.74L65.11 9.74L67.78 9.31L67.78 8.14Q67.78 5.42 65.71 5.42L65.71 5.42Q64.49 5.42 63.94 6.12Q63.38 6.82 63.31 8.26L63.31 8.26L61.30 8.04Q61.44 6.14 62.45 5.18Q63.46 4.22 65.76 4.22L65.76 4.22Q67.99 4.22 69.10 5.22Q70.20 6.22 70.20 8.23L70.20 8.23L70.20 16.03L68.66 16.03L67.92 14.35Q67.18 15.31 66.14 15.82Q65.11 16.32 63.96 16.32L63.96 16.32ZM64.82 15.05Q65.64 15.05 66.44 14.57Q67.25 14.09 67.78 13.44L67.78 13.44L67.78 10.30L65.42 10.75Q64.22 11.02 63.61 11.59Q63 12.17 63 13.15L63 13.15Q63 14.02 63.49 14.53Q63.98 15.05 64.82 15.05L64.82 15.05Z" transform="translate(36, 9.984)"></path></svg>